<?xml version="1.0" encoding="UTF-8" standalone="no"?><!DOCTYPE svg PUBLIC "-//W3C//DTD SVG 1.1//EN" "http://www.w3.org/Graphics/SVG/1.1/DTD/svg11.dtd"><svg width="100%" height="100%" viewBox="0 0 87 121" version="1.1" xmlns="http://www.w3.org/2000/svg" xmlns:xlink="http://www.w3.org/1999/xlink" xml:space="preserve" xmlns:serif="http://www.serif.com/" style="fill-rule:evenodd;clip-rule:evenodd;stroke-linejoin:round;stroke-miterlimit:2;"><rect id="kettlebell-bullet-container" x="0" y="0" width="86.35" height="120.542" style="fill:none;"/><path id="kettlebell-bullet-point" d="M24.842,20.179c9.881,-8.434 31.1,-5.866 37.185,1.811c3.824,4.811 3.311,12.326 -0.905,16.897c-0.002,0.002 -0.004,0.004 -0.005,0.005c-5.455,-2.576 -11.547,-4.022 -17.979,-4.022c-6.731,0 -13.088,1.586 -18.733,4.39c-1.055,-1.261 -8.825,-11.171 0.437,-19.081m48.541,27.492c0.002,-0.003 0.004,-0.006 0.005,-0.008c1.917,-3.834 5.264,-8.953 6.168,-17.584c1.257,-12.007 -9.956,-23.047 -20.126,-26.835c-7.673,-2.858 -35.46,-4.792 -47.919,9.584c-12.459,14.375 0.896,35.335 0.896,35.335c0,0 0.011,0.001 0.013,0.001c-7.095,7.547 -11.451,17.699 -11.451,28.875c0,23.289 18.879,42.168 42.169,42.168c23.289,0 42.168,-18.879 42.168,-42.168c0,-11.421 -4.548,-21.775 -11.923,-29.368" style="fill:#ff1aff;fill-rule:nonzero;"/></svg>